<?xml version="1.0" encoding="utf-8"?>
<!-- Generator: Adobe Illustrator 16.0.0, SVG Export Plug-In . SVG Version: 6.00 Build 0)  -->
<!DOCTYPE svg PUBLIC "-//W3C//DTD SVG 1.1 Tiny//EN" "http://www.w3.org/Graphics/SVG/1.1/DTD/svg11-tiny.dtd">
<svg version="1.1" baseProfile="tiny"
	 id="svg3039" xmlns:dc="http://purl.org/dc/elements/1.1/" xmlns:rdf="http://www.w3.org/1999/02/22-rdf-syntax-ns#" xmlns:cc="http://creativecommons.org/ns#" xmlns:svg="http://www.w3.org/2000/svg"
	 xmlns="http://www.w3.org/2000/svg" xmlns:xlink="http://www.w3.org/1999/xlink" x="0px" y="0px" width="25.509px"
	 height="23.509px" viewBox="-0.155 0.846 25.509 23.509" xml:space="preserve">
<path id="path3049" fill="#FFFFFF" stroke="#FFFFFF" d="M5.655,4c0,1.466-1.188,2.654-2.655,2.654S0.345,5.466,0.345,4l0,0
	c0-1.466,1.188-2.654,2.655-2.654S5.655,2.534,5.655,4z"/>
<path id="path3049-3" fill="#FFFFFF" stroke="#FFFFFF" d="M15.254,4c0,1.466-1.188,2.654-2.654,2.654
	c-1.466,0-2.655-1.188-2.655-2.654l0,0c0-1.466,1.188-2.654,2.655-2.654C14.066,1.346,15.254,2.534,15.254,4z"/>
<path id="path3049-35" fill="#FFFFFF" stroke="#FFFFFF" d="M24.854,4c0,1.466-1.188,2.654-2.654,2.654S19.545,5.466,19.545,4l0,0
	c0-1.466,1.189-2.654,2.655-2.654S24.854,2.534,24.854,4z"/>
<path id="path3049-3-0" fill="#FFFFFF" stroke="#FFFFFF" d="M15.254,12.6c0,1.466-1.188,2.654-2.654,2.654
	c-1.466,0-2.655-1.188-2.655-2.654l0,0c0-1.466,1.188-2.655,2.655-2.655C14.066,9.945,15.254,11.134,15.254,12.6z"/>
<path id="path3049-35-7" fill="#FFFFFF" stroke="#FFFFFF" d="M24.854,12.6c0,1.466-1.188,2.654-2.654,2.654
	s-2.655-1.188-2.655-2.654l0,0c0-1.466,1.189-2.655,2.655-2.655S24.854,11.134,24.854,12.6z"/>
<path id="path3049-35-6" fill="#FFFFFF" stroke="#FFFFFF" d="M24.854,21.2c0,1.466-1.188,2.654-2.654,2.654
	s-2.655-1.188-2.655-2.654l0,0c0-1.466,1.189-2.655,2.655-2.655S24.854,19.734,24.854,21.2z"/>
</svg>
