<?xml version="1.0" encoding="utf-8"?>
<!-- Generator: Adobe Illustrator 16.0.0, SVG Export Plug-In . SVG Version: 6.00 Build 0)  -->
<!DOCTYPE svg PUBLIC "-//W3C//DTD SVG 1.1 Tiny//EN" "http://www.w3.org/Graphics/SVG/1.1/DTD/svg11-tiny.dtd">
<svg version="1.1" baseProfile="tiny" id="Layer_1" xmlns="http://www.w3.org/2000/svg" xmlns:xlink="http://www.w3.org/1999/xlink"
	 x="0px" y="0px" width="48px" height="48px" viewBox="0 0 48 48" xml:space="preserve">
<g id="linked_x5F_in_1_">
	<path fill="#FFFFFF" d="M43,0H5C2.25,0,0,2.25,0,5v38c0,2.75,2.25,5,5,5h38c2.75,0,5-2.25,5-5V5C48,2.25,45.75,0,43,0z M16,38
		h-0.26H10V18h6V38z M13,15.281c-2.02,0-3.656-1.637-3.656-3.656S10.98,7.969,13,7.969s3.656,1.637,3.656,3.656
		S15.02,15.281,13,15.281z M38,38h-6V27.414c0-2.498-1.064-4.201-3.299-4.201c-1.707,0-2.053,1.15-2.498,2.258
		C26.039,25.869,26,26.422,26,26.977V38h-6c0,0,0.082-18.256,0-20h6v3.406c0-1.264,1.416-3.469,6.125-3.469S38,18.086,38,24.699
		S38,38,38,38z"/>
</g>
</svg>
